<?xml version="1.0" encoding="UTF-8"?>
<svg id="Layer_1" xmlns="http://www.w3.org/2000/svg" version="1.1" viewBox="0 0 2000 2000">
  <!-- Generator: Adobe Illustrator 29.7.0, SVG Export Plug-In . SVG Version: 2.1.1 Build 14)  -->
  <defs>
    <style>
      .st0, .st1, .st2, .st3, .st4, .st5, .st6, .st7, .st8, .st9, .st10, .st11, .st12, .st13, .st14 {
        stroke-miterlimit: 10;
      }

      .st0, .st15, .st16, .st4, .st17, .st6, .st9, .st11, .st12, .st13, .st14 {
        stroke-linecap: round;
      }

      .st0, .st2, .st3, .st17, .st6, .st8, .st11, .st14 {
        stroke: #00fefe;
      }

      .st0, .st3, .st4, .st6, .st7, .st18, .st9, .st11, .st12, .st13, .st14 {
        fill: #333;
      }

      .st0, .st13 {
        stroke-width: 2.8px;
      }

      .st19 {
        font-size: 28.6px;
      }

      .st19, .st20, .st21 {
        fill: #ccc;
        font-family: MyriadPro-Regular, 'Myriad Pro';
      }

      .st22 {
        fill: #00fefe;
      }

      .st20 {
        font-size: 16.9px;
      }

      .st1, .st15, .st2, .st16, .st17, .st5, .st8, .st10 {
        fill: none;
      }

      .st1, .st15, .st4, .st7, .st9, .st10, .st12, .st13 {
        stroke: #ffd338;
      }

      .st1, .st5, .st8 {
        stroke-width: 4.3px;
      }

      .st15, .st16, .st17 {
        stroke-linejoin: round;
        stroke-width: 6.5px;
      }

      .st2, .st10 {
        stroke-width: 6px;
      }

      .st16, .st5 {
        stroke: #f3f5df;
      }

      .st3, .st7 {
        stroke-width: 4.6px;
      }

      .st23 {
        fill: #f3f5df;
      }

      .st4, .st6 {
        stroke-width: 2.9px;
      }

      .st21 {
        font-size: 18.8px;
      }

      .st24 {
        fill: #1a1a1a;
      }

      .st24, .st25, .st26 {
        display: none;
      }

      .st26, .st27 {
        opacity: .6;
      }

      .st9, .st11 {
        stroke-width: 2.7px;
      }

      .st28 {
        fill: #b3b3b3;
      }

      .st29 {
        fill: #ffd338;
      }

      .st30 {
        opacity: .7;
      }

      .st12, .st14 {
        stroke-width: 2px;
      }

      .st31 {
        opacity: .7;
      }
    </style>
  </defs>
  <rect class="st24" width="2000" height="2000"/>
  <g class="st25">
    <g>
      <line class="st17" x1="1566.7" y1="186.3" x2="1513.4" y2="186.3"/>
      <line class="st17" x1="1597.7" y1="217.3" x2="1597.7" y2="270.6"/>
      <line class="st17" x1="1628.6" y1="186.3" x2="1682" y2="186.3"/>
      <line class="st17" x1="1597.7" y1="155.3" x2="1597.7" y2="102"/>
      <circle class="st22" cx="1597.7" cy="186.3" r="6.8"/>
      <circle class="st17" cx="1597.7" cy="186.3" r="57.6"/>
    </g>
    <g>
      <circle class="st8" cx="1590.8" cy="444.5" r="41"/>
      <circle class="st22" cx="1590.8" cy="444.5" r="7.3"/>
    </g>
    <g>
      <line class="st17" x1="1559.7" y1="668.6" x2="1506.3" y2="668.6"/>
      <line class="st17" x1="1590.6" y1="699.6" x2="1590.6" y2="753"/>
      <line class="st17" x1="1621.6" y1="668.6" x2="1674.9" y2="668.6"/>
      <line class="st17" x1="1590.6" y1="637.7" x2="1590.6" y2="584.3"/>
    </g>
    <g>
      <line class="st16" x1="1821.4" y1="186.3" x2="1768.1" y2="186.3"/>
      <line class="st16" x1="1852.4" y1="217.3" x2="1852.4" y2="270.6"/>
      <line class="st16" x1="1883.4" y1="186.3" x2="1936.7" y2="186.3"/>
      <line class="st16" x1="1852.4" y1="155.3" x2="1852.4" y2="102"/>
      <circle class="st23" cx="1852.4" cy="186.3" r="6.8"/>
      <circle class="st16" cx="1852.4" cy="186.3" r="57.6"/>
    </g>
    <g>
      <circle class="st5" cx="1845.5" cy="444.5" r="41"/>
      <circle class="st23" cx="1845.5" cy="444.5" r="7.3"/>
    </g>
    <g>
      <line class="st16" x1="1814.4" y1="668.6" x2="1761.1" y2="668.6"/>
      <line class="st16" x1="1845.4" y1="699.6" x2="1845.4" y2="753"/>
      <line class="st16" x1="1876.3" y1="668.6" x2="1929.7" y2="668.6"/>
      <line class="st16" x1="1845.4" y1="637.7" x2="1845.4" y2="584.3"/>
    </g>
    <g>
      <line class="st15" x1="1298" y1="193.1" x2="1244.7" y2="193.1"/>
      <line class="st15" x1="1329" y1="224.1" x2="1329" y2="277.5"/>
      <line class="st15" x1="1359.9" y1="193.1" x2="1413.3" y2="193.1"/>
      <line class="st15" x1="1329" y1="162.2" x2="1329" y2="108.8"/>
      <circle class="st29" cx="1329" cy="193.1" r="6.8"/>
      <circle class="st15" cx="1329" cy="193.1" r="57.6"/>
    </g>
    <g>
      <circle class="st1" cx="1327.9" cy="447.9" r="41"/>
      <circle class="st29" cx="1327.9" cy="447.9" r="7.3"/>
    </g>
    <g>
      <line class="st15" x1="1296.3" y1="668.7" x2="1243" y2="668.7"/>
      <line class="st15" x1="1327.3" y1="699.7" x2="1327.3" y2="753"/>
      <line class="st15" x1="1358.3" y1="668.7" x2="1411.6" y2="668.7"/>
      <line class="st15" x1="1327.3" y1="637.7" x2="1327.3" y2="584.4"/>
    </g>
  </g>
  <g class="st25">
    <polygon class="st31" points="772.2 138.1 771.7 68.9 654.9 68.9 628.3 95.6 628.3 138.1 628.3 140.1 628.3 257.9 905.2 257.9 1105.9 257.9 1105.9 224.9 1105.9 138.1 772.2 138.1"/>
    <g>
      <polygon class="st14" points="767.7 135.6 625.7 135.6 625.7 92.4 651.7 66.4 767.1 66.4 767.7 135.6"/>
      <rect class="st14" x="625.7" y="135.6" width="475.7" height="117.8"/>
      <polygon class="st14" points="944.3 222.3 1101.4 222.3 1101.4 253.4 904.6 253.4 944.3 222.3"/>
    </g>
    <text class="st20" transform="translate(635.4 156.7)"><tspan x="0" y="0">Lorem ipsum dolor sit amet, consectetuer adipiscing elit, sed </tspan><tspan x="0" y="20.3">diam nonummy nibh euismod tincidunt ut laoreet dolore </tspan><tspan x="0" y="40.6">magna aliquam erat volutpat. Ut wisi enim ad minim veniam, </tspan><tspan x="0" y="61">quis nostrud exerci tation ullamcorper </tspan><tspan x="0" y="81.3">tation ullamcorper tation ullamcorper </tspan></text>
    <text class="st21" transform="translate(961.1 242.9)"><tspan x="0" y="0">Lorem ipsum</tspan></text>
    <g>
      <circle class="st28" cx="696.7" cy="70.1" r="28.5"/>
      <path class="st28" d="M659.8,132.2v-9.3c0-11,8.9-19.9,19.9-19.9h33.9c11,0,19.9,8.9,19.9,19.9v9.3h-73.8Z"/>
    </g>
  </g>
  <g class="st25">
    <g class="st30">
      <polygon points="155.2 401.7 119.8 437.1 119.8 703.3 77 746.1 77 908.4 293.6 908.4 359.1 842.9 359.1 401.7 155.2 401.7"/>
      <polygon points="112.6 703.5 98.2 689.1 98.4 717.7 112.6 703.5"/>
      <polygon points="116 567.9 97.7 586.2 116 604.5 116 567.9"/>
      <polygon points="116 611.4 97.8 593.1 97.9 618.2 116 636.4 116 611.4"/>
      <polygon points="116 643.2 97.9 625.1 98 650.2 116 668.2 116 643.2"/>
      <polygon points="116 675.1 98.1 657.1 98.2 682.2 116 700.1 116 675.1"/>
    </g>
    <polygon class="st14" points="73.9 903.4 73.9 742.5 116.7 699.7 116.7 433.5 151.6 398.6 354.1 398.6 354.1 838.5 289.1 903.4 73.9 903.4"/>
    <g>
      <polygon class="st22" points="94.2 685.1 108.6 699.4 94.3 713.7 94.2 685.1"/>
      <polygon class="st22" points="112 563.8 112 600.5 93.7 582.1 112 563.8"/>
      <polygon class="st22" points="93.7 589.1 112 607.4 112 632.3 93.8 614.2 93.7 589.1"/>
      <polygon class="st22" points="93.9 621.1 112 639.2 112 664.2 94 646.2 93.9 621.1"/>
      <polygon class="st22" points="94 653.1 112 671 112 696 94.2 678.2 94 653.1"/>
    </g>
    <line class="st14" x1="116.7" y1="699.7" x2="116.7" y2="903.4"/>
    <text class="st19" transform="translate(102.9 891.7) rotate(-90)"><tspan x="0" y="0">Lorem ipsum</tspan></text>
  </g>
  <g class="st25">
    <g class="st30">
      <polygon points="142.5 92.8 558.9 92.8 558.9 260.9 390.4 260.9 358.1 293.2 75 293.2 75 160.4 142.5 92.8"/>
      <polygon points="549.7 268.5 532.8 285.4 515.8 268.3 549.7 268.5"/>
      <polygon points="415.2 289.5 371.7 289.5 393.5 267.7 415.2 289.5"/>
      <polygon points="431.5 267.9 453.1 289.5 423.4 289.5 401.7 267.8 431.5 267.9"/>
      <polygon points="469.5 268.1 490.9 289.5 461.3 289.5 439.7 267.9 469.5 268.1"/>
      <polygon points="507.6 268.3 528.8 289.5 499.1 289.5 477.8 268.1 507.6 268.3"/>
      <polygon points="76 93.8 131.6 93.8 76 149.4 76 93.8"/>
    </g>
    <g>
      <polygon class="st14" points="73.6 158.4 73.6 289.8 355.2 289.8 387.5 257.5 555.5 257.5 555.5 91.4 140.5 91.4 73.6 158.4"/>
      <g>
        <polygon class="st22" points="513.4 265.9 530.4 283 547.3 266.1 513.4 265.9"/>
        <polygon class="st22" points="369.3 287.1 412.8 287.1 391.1 265.3 369.3 287.1"/>
        <polygon class="st22" points="399.3 265.3 421 287.1 450.7 287.1 429.1 265.5 399.3 265.3"/>
        <polygon class="st22" points="437.3 265.5 458.8 287.1 488.5 287.1 467.1 265.7 437.3 265.5"/>
        <polygon class="st22" points="475.3 265.7 496.7 287.1 526.3 287.1 505.1 265.9 475.3 265.7"/>
      </g>
      <polygon class="st22" points="129.2 91.4 73.6 91.4 73.6 147 129.2 91.4"/>
    </g>
  </g>
  <g class="st25">
    <g class="st30">
      <polygon points="411.7 685.9 411.7 727.3 427.5 743.1 496.5 743.1 511.8 727.7 639.1 727.7 681 685.9 411.7 685.9"/>
      <polygon points="582.5 742.7 582.7 742.7 594.6 730.9 570.6 730.9 582.5 742.7"/>
      <polygon points="553.4 730.9 565.2 742.7 577 742.7 565.1 730.9 553.4 730.9"/>
      <polygon points="536.1 730.9 547.9 742.7 559.7 742.7 547.8 730.9 536.1 730.9"/>
      <polygon points="518.8 730.9 530.6 742.7 542.4 742.7 530.5 730.9 518.8 730.9"/>
      <polygon points="501.4 742.7 525.1 742.7 513.3 730.9 501.4 742.7"/>
    </g>
    <g>
      <polygon class="st6" points="410.5 684.6 410.5 725 425.8 740.3 494.2 740.3 509.5 725 636.8 725 677.2 684.6 410.5 684.6"/>
      <g>
        <polygon class="st22" points="581 741.1 580.8 741.1 569 729.2 593 729.2 581 741.1"/>
        <polygon class="st22" points="563.5 729.2 575.3 741.1 563.5 741.1 551.7 729.2 563.5 729.2"/>
        <polygon class="st22" points="546.2 729.2 558 741.1 546.3 741.1 534.4 729.2 546.2 729.2"/>
        <polygon class="st22" points="528.9 729.2 540.7 741.1 529 741.1 517.1 729.2 528.9 729.2"/>
        <polygon class="st22" points="511.6 729.2 523.4 741.1 499.7 741.1 511.6 729.2"/>
      </g>
    </g>
  </g>
  <g class="st25">
    <g>
      <path class="st30" d="M545.6,388.8v5.6h21.3v5.5h-33.4c-.6,0-1,.4-1,1v65c0,.3.1.5.3.7l23,23c.2.2.4.3.7.3h65c.6,0,1-.4,1-1v-33.4h5.5s0,0,0,0v21.3h5.6v-62.3l-25.7-25.7h-62.3ZM613.1,405.2s0,0,0,0l-4.4,4.4-9.5-9.5c-.2-.2-.4-.3-.7-.3h-29.6v-5.5h33.4l10.8,10.8ZM628,453.4s0,0,0,0h-5.5v-29.6c0-.3-.1-.5-.3-.7l-12.1-12.1,4.4-4.4s0,0,0,0l13.5,13.5v33.4Z"/>
      <g>
        <g>
          <polygon class="st18" points="618.3 420.6 618.3 485.6 553.3 485.6 530.3 462.6 530.3 397.6 595.2 397.6 618.3 420.6"/>
          <path class="st22" d="M618.3,486.6h-65c-.3,0-.5-.1-.7-.3l-23-23c-.2-.2-.3-.4-.3-.7v-65c0-.6.4-1,1-1h65c.3,0,.5.1.7.3l23,23c.2.2.3.4.3.7v65c0,.6-.4,1-1,1ZM553.7,484.6h63.6v-63.6l-22.4-22.4h-63.6v63.6l22.4,22.4Z"/>
        </g>
        <g>
          <line class="st18" x1="618.3" y1="451.2" x2="624.8" y2="451.2"/>
          <path class="st22" d="M624.8,452.2h-6.5c-.6,0-1-.4-1-1s.4-1,1-1h6.5c.6,0,1,.4,1,1s-.4,1-1,1Z"/>
        </g>
        <g>
          <line class="st18" x1="564.6" y1="391.1" x2="564.6" y2="397.5"/>
          <path class="st22" d="M564.6,398.5c-.6,0-1-.4-1-1v-6.4c0-.6.4-1,1-1s1,.4,1,1v6.4c0,.6-.4,1-1,1Z"/>
        </g>
        <g>
          <line class="st18" x1="610.6" y1="402.7" x2="605.5" y2="407.8"/>
          <path class="st22" d="M605.4,408.8c-.3,0-.5,0-.7-.3-.4-.4-.4-1,0-1.4l5.1-5.1c.4-.4,1-.4,1.4,0s.4,1,0,1.4l-5.1,5.1c-.2.2-.5.3-.7.3Z"/>
        </g>
        <polygon class="st22" points="630.4 411.2 630.4 473.5 624.8 473.5 624.8 416.8 599 391.1 542.4 391.1 542.4 385.5 604.7 385.5 630.4 411.2"/>
      </g>
    </g>
    <g>
      <path class="st30" d="M489.7,388.8v5.6h-21.3v5.5h33.4c.6,0,1,.4,1,1v65c0,.3-.1.5-.3.7l-23,23c-.2.2-.4.3-.7.3h-65c-.6,0-1-.4-1-1v-33.4h-5.5s0,0,0,0v21.3h-5.6v-62.3l25.7-25.7h62.3ZM422.1,405.2s0,0,0,0l4.4,4.4,9.5-9.5c.2-.2.4-.3.7-.3h29.6v-5.5h-33.4l-10.8,10.8ZM407.3,453.4s0,0,0,0h5.5v-29.6c0-.3.1-.5.3-.7l12.1-12.1-4.4-4.4s0,0,0,0l-13.5,13.5v33.4Z"/>
      <g>
        <g>
          <polygon class="st18" points="410.5 420.6 410.5 485.6 475.5 485.6 498.5 462.6 498.5 397.6 433.5 397.6 410.5 420.6"/>
          <path class="st22" d="M410.5,486.6h65c.3,0,.5-.1.7-.3l23-23c.2-.2.3-.4.3-.7v-65c0-.6-.4-1-1-1h-65c-.3,0-.5.1-.7.3l-23,23c-.2.2-.3.4-.3.7v65c0,.6.4,1,1,1ZM475.1,484.6h-63.6v-63.6l22.4-22.4h63.6v63.6l-22.4,22.4Z"/>
        </g>
        <g>
          <line class="st18" x1="410.5" y1="451.2" x2="404" y2="451.2"/>
          <path class="st22" d="M404,452.2h6.5c.6,0,1-.4,1-1s-.4-1-1-1h-6.5c-.6,0-1,.4-1,1s.4,1,1,1Z"/>
        </g>
        <g>
          <line class="st18" x1="464.2" y1="391.1" x2="464.2" y2="397.5"/>
          <path class="st22" d="M464.2,398.5c.6,0,1-.4,1-1v-6.4c0-.6-.4-1-1-1s-1,.4-1,1v6.4c0,.6.4,1,1,1Z"/>
        </g>
        <g>
          <line class="st18" x1="418.2" y1="402.7" x2="423.3" y2="407.8"/>
          <path class="st22" d="M423.3,408.8c.3,0,.5,0,.7-.3.4-.4.4-1,0-1.4l-5.1-5.1c-.4-.4-1-.4-1.4,0s-.4,1,0,1.4l5.1,5.1c.2.2.5.3.7.3Z"/>
        </g>
        <polygon class="st22" points="398.4 411.2 398.4 473.5 404 473.5 404 416.8 429.7 391.1 486.4 391.1 486.4 385.5 424.1 385.5 398.4 411.2"/>
      </g>
    </g>
    <g>
      <path class="st30" d="M545.6,619.3v-5.6h21.3v-5.5h-33.4c-.6,0-1-.4-1-1v-65c0-.3.1-.5.3-.7l23-23c.2-.2.4-.3.7-.3h65c.6,0,1,.4,1,1v33.4h5.5s0,0,0,0v-21.3h5.6v62.3l-25.7,25.7h-62.3ZM613.1,602.9s0,0,0,0l-4.4-4.4-9.5,9.5c-.2.2-.4.3-.7.3h-29.6v5.5h33.4l10.8-10.8ZM628,554.6s0,0,0,0h-5.5v29.6c0,.3-.1.5-.3.7l-12.1,12.1,4.4,4.4s0,0,0,0l13.5-13.5v-33.4Z"/>
      <g>
        <g>
          <polygon class="st18" points="618.3 581 618.3 516 553.3 516 530.3 539 530.3 604 595.2 604 618.3 581"/>
          <path class="st22" d="M618.3,515h-65c-.3,0-.5.1-.7.3l-23,23c-.2.2-.3.4-.3.7v65c0,.6.4,1,1,1h65c.3,0,.5-.1.7-.3l23-23c.2-.2.3-.4.3-.7v-65c0-.6-.4-1-1-1ZM553.7,517h63.6v63.6l-22.4,22.4h-63.6v-63.6l22.4-22.4Z"/>
        </g>
        <g>
          <line class="st18" x1="618.3" y1="550.4" x2="624.8" y2="550.4"/>
          <path class="st22" d="M624.8,549.4h-6.5c-.6,0-1,.4-1,1s.4,1,1,1h6.5c.6,0,1-.4,1-1s-.4-1-1-1Z"/>
        </g>
        <g>
          <line class="st18" x1="564.6" y1="610.5" x2="564.6" y2="604.1"/>
          <path class="st22" d="M564.6,603.1c-.6,0-1,.4-1,1v6.4c0,.6.4,1,1,1s1-.4,1-1v-6.4c0-.6-.4-1-1-1Z"/>
        </g>
        <g>
          <line class="st18" x1="610.6" y1="598.9" x2="605.5" y2="593.8"/>
          <path class="st22" d="M605.4,592.8c-.3,0-.5,0-.7.3-.4.4-.4,1,0,1.4l5.1,5.1c.4.4,1,.4,1.4,0s.4-1,0-1.4l-5.1-5.1c-.2-.2-.5-.3-.7-.3Z"/>
        </g>
        <polygon class="st22" points="630.4 590.4 630.4 528.1 624.8 528.1 624.8 584.8 599 610.5 542.4 610.5 542.4 616.1 604.7 616.1 630.4 590.4"/>
      </g>
    </g>
    <g>
      <path class="st30" d="M489.7,619.3v-5.6h-21.3v-5.5h33.4c.6,0,1-.4,1-1v-65c0-.3-.1-.5-.3-.7l-23-23c-.2-.2-.4-.3-.7-.3h-65c-.6,0-1,.4-1,1v33.4h-5.5s0,0,0,0v-21.3h-5.6v62.3l25.7,25.7h62.3ZM422.1,602.9s0,0,0,0l4.4-4.4,9.5,9.5c.2.2.4.3.7.3h29.6v5.5h-33.4l-10.8-10.8ZM407.3,554.6s0,0,0,0h5.5v29.6c0,.3.1.5.3.7l12.1,12.1-4.4,4.4s0,0,0,0l-13.5-13.5v-33.4Z"/>
      <g>
        <g>
          <polygon class="st18" points="410.5 581 410.5 516 475.5 516 498.5 539 498.5 604 433.5 604 410.5 581"/>
          <path class="st22" d="M410.5,515h65c.3,0,.5.1.7.3l23,23c.2.2.3.4.3.7v65c0,.6-.4,1-1,1h-65c-.3,0-.5-.1-.7-.3l-23-23c-.2-.2-.3-.4-.3-.7v-65c0-.6.4-1,1-1ZM475.1,517h-63.6v63.6l22.4,22.4h63.6v-63.6l-22.4-22.4Z"/>
        </g>
        <g>
          <line class="st18" x1="410.5" y1="550.4" x2="404" y2="550.4"/>
          <path class="st22" d="M404,549.4h6.5c.6,0,1,.4,1,1s-.4,1-1,1h-6.5c-.6,0-1-.4-1-1s.4-1,1-1Z"/>
        </g>
        <g>
          <line class="st18" x1="464.2" y1="610.5" x2="464.2" y2="604.1"/>
          <path class="st22" d="M464.2,603.1c.6,0,1,.4,1,1v6.4c0,.6-.4,1-1,1s-1-.4-1-1v-6.4c0-.6.4-1,1-1Z"/>
        </g>
        <g>
          <line class="st18" x1="418.2" y1="598.9" x2="423.3" y2="593.8"/>
          <path class="st22" d="M423.3,592.8c.3,0,.5,0,.7.3.4.4.4,1,0,1.4l-5.1,5.1c-.4.4-1,.4-1.4,0s-.4-1,0-1.4l5.1-5.1c.2-.2.5-.3.7-.3Z"/>
        </g>
        <polygon class="st22" points="398.4 590.4 398.4 528.1 404 528.1 404 584.8 429.7 610.5 486.4 610.5 486.4 616.1 424.1 616.1 398.4 590.4"/>
      </g>
    </g>
  </g>
  <g class="st25">
    <g>
      <g class="st30">
        <polygon points="964.6 420 964.6 459.7 791.1 459.7 790.6 459.3 790.6 420 964.6 420"/>
        <path d="M788.8,458.6"/>
      </g>
      <rect class="st0" x="788.6" y="418" width="172.9" height="38.2"/>
    </g>
    <g>
      <g class="st30">
        <polygon points="791.7 394.7 791.7 459.7 726.7 459.7 703.7 436.7 703.7 371.7 768.7 371.7 791.7 394.7"/>
      </g>
      <g>
        <polygon class="st18" points="722.8 457.2 699.2 433.6 699.2 367.2 765.6 367.2 789.2 390.8 789.2 457.2 722.8 457.2"/>
        <path class="st22" d="M765.1,368.2l23,23v65h-65l-23-23v-65h65M766,366.2h-67.8v67.8l.6.6,23,23,.6.6h67.8v-67.8l-.6-.6-23-23-.6-.6h0Z"/>
      </g>
    </g>
  </g>
  <g class="st25">
    <g>
      <g class="st30">
        <polygon points="991.7 540.3 953.6 578.4 787.1 578.4 786.7 578 786.7 540.3 991.7 540.3"/>
        <path d="M785.2,550.4"/>
      </g>
      <polygon class="st11" points="987.7 538.6 950.9 575.3 785 575.3 785 538.6 987.7 538.6"/>
    </g>
    <g>
      <g class="st30">
        <polygon points="788.2 513.5 788.2 578.4 723.2 578.4 700.2 555.4 700.2 490.4 765.1 490.4 788.2 513.5"/>
      </g>
      <g>
        <polygon class="st18" points="719.3 575.9 695.6 552.3 695.6 485.9 762 485.9 785.6 509.5 785.6 575.9 719.3 575.9"/>
        <path class="st22" d="M761.6,486.9l23,23v65h-65l-23-23v-65h65M762.4,484.9h-67.8v67.8l.6.6,23,23,.6.6h67.8v-67.8l-.6-.6-23-23-.6-.6h0Z"/>
      </g>
    </g>
  </g>
  <g class="st25">
    <polygon class="st31" points="808.2 1096.1 807.7 1026.9 690.9 1026.9 664.3 1053.6 664.3 1096.1 664.3 1098.1 664.3 1215.9 941.2 1215.9 1141.9 1215.9 1141.9 1182.9 1141.9 1096.1 808.2 1096.1"/>
    <g>
      <polygon class="st12" points="803.7 1093.6 661.7 1093.6 661.7 1050.4 687.7 1024.4 803.1 1024.4 803.7 1093.6"/>
      <rect class="st12" x="661.7" y="1093.6" width="475.7" height="117.8"/>
      <polygon class="st12" points="980.3 1180.3 1137.4 1180.3 1137.4 1211.4 940.6 1211.4 980.3 1180.3"/>
    </g>
    <text class="st20" transform="translate(671.4 1114.7)"><tspan x="0" y="0">Lorem ipsum dolor sit amet, consectetuer adipiscing elit, sed </tspan><tspan x="0" y="20.3">diam nonummy nibh euismod tincidunt ut laoreet dolore </tspan><tspan x="0" y="40.6">magna aliquam erat volutpat. Ut wisi enim ad minim veniam, </tspan><tspan x="0" y="61">quis nostrud exerci tation ullamcorper </tspan><tspan x="0" y="81.3">tation ullamcorper tation ullamcorper </tspan></text>
    <text class="st21" transform="translate(997.1 1200.9)"><tspan x="0" y="0">Lorem ipsum</tspan></text>
    <g>
      <circle class="st28" cx="732.7" cy="1028.1" r="28.5"/>
      <path class="st28" d="M695.8,1090.2v-9.3c0-11,8.9-19.9,19.9-19.9h33.9c11,0,19.9,8.9,19.9,19.9v9.3h-73.8Z"/>
    </g>
  </g>
  <g class="st25">
    <g class="st30">
      <polygon points="191.2 1359.7 155.8 1395.1 155.8 1661.3 113 1704.1 113 1866.4 329.6 1866.4 395.1 1800.9 395.1 1359.7 191.2 1359.7"/>
      <polygon points="148.6 1661.5 134.2 1647.1 134.4 1675.7 148.6 1661.5"/>
      <polygon points="152 1525.9 133.7 1544.2 152 1562.5 152 1525.9"/>
      <polygon points="152 1569.4 133.8 1551.1 133.9 1576.2 152 1594.4 152 1569.4"/>
      <polygon points="152 1601.2 133.9 1583.1 134 1608.2 152 1626.2 152 1601.2"/>
      <polygon points="152 1633.1 134.1 1615.1 134.2 1640.2 152 1658.1 152 1633.1"/>
    </g>
    <polygon class="st12" points="109.9 1861.4 109.9 1700.5 152.7 1657.7 152.7 1391.5 187.6 1356.6 390.1 1356.6 390.1 1796.5 325.1 1861.4 109.9 1861.4"/>
    <g>
      <polygon class="st29" points="130.2 1643.1 144.6 1657.4 130.3 1671.7 130.2 1643.1"/>
      <polygon class="st29" points="148 1521.8 148 1558.5 129.7 1540.1 148 1521.8"/>
      <polygon class="st29" points="129.7 1547.1 148 1565.4 148 1590.3 129.8 1572.2 129.7 1547.1"/>
      <polygon class="st29" points="129.9 1579.1 148 1597.2 148 1622.2 130 1604.2 129.9 1579.1"/>
      <polygon class="st29" points="130 1611.1 148 1629 148 1654 130.2 1636.2 130 1611.1"/>
    </g>
    <line class="st12" x1="152.7" y1="1657.7" x2="152.7" y2="1861.4"/>
    <text class="st19" transform="translate(138.9 1849.7) rotate(-90)"><tspan x="0" y="0">Lorem ipsum</tspan></text>
  </g>
  <g class="st25">
    <g class="st30">
      <polygon points="178.5 1050.8 594.9 1050.8 594.9 1218.9 426.4 1218.9 394.1 1251.2 111 1251.2 111 1118.4 178.5 1050.8"/>
      <polygon points="585.7 1226.5 568.8 1243.4 551.8 1226.3 585.7 1226.5"/>
      <polygon points="451.2 1247.5 407.7 1247.5 429.5 1225.7 451.2 1247.5"/>
      <polygon points="467.5 1225.9 489.1 1247.5 459.4 1247.5 437.7 1225.8 467.5 1225.9"/>
      <polygon points="505.5 1226.1 526.9 1247.5 497.3 1247.5 475.7 1225.9 505.5 1226.1"/>
      <polygon points="543.6 1226.3 564.8 1247.5 535.1 1247.5 513.8 1226.1 543.6 1226.3"/>
      <polygon points="112 1051.8 167.6 1051.8 112 1107.4 112 1051.8"/>
    </g>
    <g>
      <polygon class="st12" points="109.6 1116.4 109.6 1247.8 391.2 1247.8 423.5 1215.5 591.5 1215.5 591.5 1049.4 176.5 1049.4 109.6 1116.4"/>
      <g>
        <polygon class="st29" points="549.4 1223.9 566.4 1241 583.3 1224.1 549.4 1223.9"/>
        <polygon class="st29" points="405.3 1245.1 448.8 1245.1 427.1 1223.3 405.3 1245.1"/>
        <polygon class="st29" points="435.3 1223.3 457 1245.1 486.7 1245.1 465.1 1223.5 435.3 1223.3"/>
        <polygon class="st29" points="473.3 1223.5 494.8 1245.1 524.5 1245.1 503.1 1223.7 473.3 1223.5"/>
        <polygon class="st29" points="511.3 1223.7 532.7 1245.1 562.3 1245.1 541.1 1223.9 511.3 1223.7"/>
      </g>
      <polygon class="st29" points="165.2 1049.4 109.6 1049.4 109.6 1105 165.2 1049.4"/>
    </g>
  </g>
  <g class="st25">
    <g class="st30">
      <polygon points="447.7 1643.9 447.7 1685.3 463.5 1701.1 532.5 1701.1 547.8 1685.7 675.1 1685.7 717 1643.9 447.7 1643.9"/>
      <polygon points="618.5 1700.7 618.7 1700.7 630.6 1688.9 606.6 1688.9 618.5 1700.7"/>
      <polygon points="589.4 1688.9 601.2 1700.7 613 1700.7 601.1 1688.9 589.4 1688.9"/>
      <polygon points="572.1 1688.9 583.9 1700.7 595.7 1700.7 583.8 1688.9 572.1 1688.9"/>
      <polygon points="554.8 1688.9 566.6 1700.7 578.4 1700.7 566.5 1688.9 554.8 1688.9"/>
      <polygon points="537.4 1700.7 561.1 1700.7 549.3 1688.9 537.4 1700.7"/>
    </g>
    <g>
      <polygon class="st4" points="446.5 1642.6 446.5 1683 461.8 1698.3 530.2 1698.3 545.5 1683 672.8 1683 713.2 1642.6 446.5 1642.6"/>
      <g>
        <polygon class="st29" points="617 1699.1 616.8 1699.1 605 1687.2 629 1687.2 617 1699.1"/>
        <polygon class="st29" points="599.5 1687.2 611.3 1699.1 599.5 1699.1 587.7 1687.2 599.5 1687.2"/>
        <polygon class="st29" points="582.2 1687.2 594 1699.1 582.3 1699.1 570.4 1687.2 582.2 1687.2"/>
        <polygon class="st29" points="564.9 1687.2 576.7 1699.1 565 1699.1 553.1 1687.2 564.9 1687.2"/>
        <polygon class="st29" points="547.6 1687.2 559.4 1699.1 535.7 1699.1 547.6 1687.2"/>
      </g>
    </g>
  </g>
  <g class="st25">
    <g>
      <path class="st30" d="M581.6,1346.8v5.6h21.3v5.5h-33.4c-.6,0-1,.4-1,1v65c0,.3.1.5.3.7l23,23c.2.2.4.3.7.3h65c.6,0,1-.4,1-1v-33.4h5.5s0,0,0,0v21.3h5.6v-62.3l-25.7-25.7h-62.3ZM649.1,1363.2s0,0,0,0l-4.4,4.4-9.5-9.5c-.2-.2-.4-.3-.7-.3h-29.6v-5.5h33.4l10.8,10.8ZM664,1411.4s0,0,0,0h-5.5v-29.6c0-.3-.1-.5-.3-.7l-12.1-12.1,4.4-4.4s0,0,0,0l13.5,13.5v33.4Z"/>
      <g>
        <g>
          <polygon class="st18" points="654.3 1378.6 654.3 1443.6 589.3 1443.6 566.3 1420.6 566.3 1355.6 631.2 1355.6 654.3 1378.6"/>
          <path class="st29" d="M654.3,1444.6h-65c-.3,0-.5-.1-.7-.3l-23-23c-.2-.2-.3-.4-.3-.7v-65c0-.6.4-1,1-1h65c.3,0,.5.1.7.3l23,23c.2.2.3.4.3.7v65c0,.6-.4,1-1,1ZM589.7,1442.6h63.6v-63.6l-22.4-22.4h-63.6v63.6l22.4,22.4Z"/>
        </g>
        <g>
          <line class="st18" x1="654.3" y1="1409.2" x2="660.8" y2="1409.2"/>
          <path class="st29" d="M660.8,1410.2h-6.5c-.6,0-1-.4-1-1s.4-1,1-1h6.5c.6,0,1,.4,1,1s-.4,1-1,1Z"/>
        </g>
        <g>
          <line class="st18" x1="600.6" y1="1349.1" x2="600.6" y2="1355.5"/>
          <path class="st29" d="M600.6,1356.5c-.6,0-1-.4-1-1v-6.4c0-.6.4-1,1-1s1,.4,1,1v6.4c0,.6-.4,1-1,1Z"/>
        </g>
        <g>
          <line class="st18" x1="646.6" y1="1360.7" x2="641.5" y2="1365.8"/>
          <path class="st29" d="M641.4,1366.8c-.3,0-.5,0-.7-.3-.4-.4-.4-1,0-1.4l5.1-5.1c.4-.4,1-.4,1.4,0s.4,1,0,1.4l-5.1,5.1c-.2.2-.5.3-.7.3Z"/>
        </g>
        <polygon class="st29" points="666.4 1369.2 666.4 1431.5 660.8 1431.5 660.8 1374.8 635 1349.1 578.4 1349.1 578.4 1343.5 640.7 1343.5 666.4 1369.2"/>
      </g>
    </g>
    <g>
      <path class="st30" d="M525.7,1346.8v5.6h-21.3v5.5h33.4c.6,0,1,.4,1,1v65c0,.3-.1.5-.3.7l-23,23c-.2.2-.4.3-.7.3h-65c-.6,0-1-.4-1-1v-33.4h-5.5s0,0,0,0v21.3h-5.6v-62.3l25.7-25.7h62.3ZM458.1,1363.2s0,0,0,0l4.4,4.4,9.5-9.5c.2-.2.4-.3.7-.3h29.6v-5.5h-33.4l-10.8,10.8ZM443.3,1411.4s0,0,0,0h5.5v-29.6c0-.3.1-.5.3-.7l12.1-12.1-4.4-4.4s0,0,0,0l-13.5,13.5v33.4Z"/>
      <g>
        <g>
          <polygon class="st18" points="446.5 1378.6 446.5 1443.6 511.5 1443.6 534.5 1420.6 534.5 1355.6 469.5 1355.6 446.5 1378.6"/>
          <path class="st29" d="M446.5,1444.6h65c.3,0,.5-.1.7-.3l23-23c.2-.2.3-.4.3-.7v-65c0-.6-.4-1-1-1h-65c-.3,0-.5.1-.7.3l-23,23c-.2.2-.3.4-.3.7v65c0,.6.4,1,1,1ZM511.1,1442.6h-63.6v-63.6l22.4-22.4h63.6v63.6l-22.4,22.4Z"/>
        </g>
        <g>
          <line class="st18" x1="446.5" y1="1409.2" x2="440" y2="1409.2"/>
          <path class="st29" d="M440,1410.2h6.5c.6,0,1-.4,1-1s-.4-1-1-1h-6.5c-.6,0-1,.4-1,1s.4,1,1,1Z"/>
        </g>
        <g>
          <line class="st18" x1="500.2" y1="1349.1" x2="500.2" y2="1355.5"/>
          <path class="st29" d="M500.2,1356.5c.6,0,1-.4,1-1v-6.4c0-.6-.4-1-1-1s-1,.4-1,1v6.4c0,.6.4,1,1,1Z"/>
        </g>
        <g>
          <line class="st18" x1="454.2" y1="1360.7" x2="459.3" y2="1365.8"/>
          <path class="st29" d="M459.3,1366.8c.3,0,.5,0,.7-.3.4-.4.4-1,0-1.4l-5.1-5.1c-.4-.4-1-.4-1.4,0s-.4,1,0,1.4l5.1,5.1c.2.2.5.3.7.3Z"/>
        </g>
        <polygon class="st29" points="434.4 1369.2 434.4 1431.5 440 1431.5 440 1374.8 465.7 1349.1 522.4 1349.1 522.4 1343.5 460.1 1343.5 434.4 1369.2"/>
      </g>
    </g>
    <g>
      <path class="st30" d="M581.6,1577.3v-5.6h21.3v-5.5h-33.4c-.6,0-1-.4-1-1v-65c0-.3.1-.5.3-.7l23-23c.2-.2.4-.3.7-.3h65c.6,0,1,.4,1,1v33.4h5.5s0,0,0,0v-21.3h5.6v62.3l-25.7,25.7h-62.3ZM649.1,1560.9s0,0,0,0l-4.4-4.4-9.5,9.5c-.2.2-.4.3-.7.3h-29.6v5.5h33.4l10.8-10.8ZM664,1512.6s0,0,0,0h-5.5v29.6c0,.3-.1.5-.3.7l-12.1,12.1,4.4,4.4s0,0,0,0l13.5-13.5v-33.4Z"/>
      <g>
        <g>
          <polygon class="st18" points="654.3 1539 654.3 1474 589.3 1474 566.3 1497 566.3 1562 631.2 1562 654.3 1539"/>
          <path class="st29" d="M654.3,1473h-65c-.3,0-.5.1-.7.3l-23,23c-.2.2-.3.4-.3.7v65c0,.6.4,1,1,1h65c.3,0,.5-.1.7-.3l23-23c.2-.2.3-.4.3-.7v-65c0-.6-.4-1-1-1ZM589.7,1475h63.6v63.6l-22.4,22.4h-63.6v-63.6l22.4-22.4Z"/>
        </g>
        <g>
          <line class="st18" x1="654.3" y1="1508.4" x2="660.8" y2="1508.4"/>
          <path class="st29" d="M660.8,1507.4h-6.5c-.6,0-1,.4-1,1s.4,1,1,1h6.5c.6,0,1-.4,1-1s-.4-1-1-1Z"/>
        </g>
        <g>
          <line class="st18" x1="600.6" y1="1568.5" x2="600.6" y2="1562.1"/>
          <path class="st29" d="M600.6,1561.1c-.6,0-1,.4-1,1v6.4c0,.6.4,1,1,1s1-.4,1-1v-6.4c0-.6-.4-1-1-1Z"/>
        </g>
        <g>
          <line class="st18" x1="646.6" y1="1556.9" x2="641.5" y2="1551.8"/>
          <path class="st29" d="M641.4,1550.8c-.3,0-.5,0-.7.3-.4.4-.4,1,0,1.4l5.1,5.1c.4.4,1,.4,1.4,0s.4-1,0-1.4l-5.1-5.1c-.2-.2-.5-.3-.7-.3Z"/>
        </g>
        <polygon class="st29" points="666.4 1548.4 666.4 1486.1 660.8 1486.1 660.8 1542.8 635 1568.5 578.4 1568.5 578.4 1574.1 640.7 1574.1 666.4 1548.4"/>
      </g>
    </g>
    <g>
      <path class="st30" d="M525.7,1577.3v-5.6h-21.3v-5.5h33.4c.6,0,1-.4,1-1v-65c0-.3-.1-.5-.3-.7l-23-23c-.2-.2-.4-.3-.7-.3h-65c-.6,0-1,.4-1,1v33.4h-5.5s0,0,0,0v-21.3h-5.6v62.3l25.7,25.7h62.3ZM458.1,1560.9s0,0,0,0l4.4-4.4,9.5,9.5c.2.2.4.3.7.3h29.6v5.5h-33.4l-10.8-10.8ZM443.3,1512.6s0,0,0,0h5.5v29.6c0,.3.1.5.3.7l12.1,12.1-4.4,4.4s0,0,0,0l-13.5-13.5v-33.4Z"/>
      <g>
        <g>
          <polygon class="st18" points="446.5 1539 446.5 1474 511.5 1474 534.5 1497 534.5 1562 469.5 1562 446.5 1539"/>
          <path class="st29" d="M446.5,1473h65c.3,0,.5.1.7.3l23,23c.2.2.3.4.3.7v65c0,.6-.4,1-1,1h-65c-.3,0-.5-.1-.7-.3l-23-23c-.2-.2-.3-.4-.3-.7v-65c0-.6.4-1,1-1ZM511.1,1475h-63.6v63.6l22.4,22.4h63.6v-63.6l-22.4-22.4Z"/>
        </g>
        <g>
          <line class="st18" x1="446.5" y1="1508.4" x2="440" y2="1508.4"/>
          <path class="st29" d="M440,1507.4h6.5c.6,0,1,.4,1,1s-.4,1-1,1h-6.5c-.6,0-1-.4-1-1s.4-1,1-1Z"/>
        </g>
        <g>
          <line class="st18" x1="500.2" y1="1568.5" x2="500.2" y2="1562.1"/>
          <path class="st29" d="M500.2,1561.1c.6,0,1,.4,1,1v6.4c0,.6-.4,1-1,1s-1-.4-1-1v-6.4c0-.6.4-1,1-1Z"/>
        </g>
        <g>
          <line class="st18" x1="454.2" y1="1556.9" x2="459.3" y2="1551.8"/>
          <path class="st29" d="M459.3,1550.8c.3,0,.5,0,.7.3.4.4.4,1,0,1.4l-5.1,5.1c-.4.4-1,.4-1.4,0s-.4-1,0-1.4l5.1-5.1c.2-.2.5-.3.7-.3Z"/>
        </g>
        <polygon class="st29" points="434.4 1548.4 434.4 1486.1 440 1486.1 440 1542.8 465.7 1568.5 522.4 1568.5 522.4 1574.1 460.1 1574.1 434.4 1548.4"/>
      </g>
    </g>
  </g>
  <g class="st25">
    <g>
      <g class="st30">
        <polygon points="1000.6 1378 1000.6 1417.7 827.1 1417.7 826.6 1417.3 826.6 1378 1000.6 1378"/>
        <path d="M824.8,1416.6"/>
      </g>
      <rect class="st13" x="824.6" y="1376" width="172.9" height="38.2"/>
    </g>
    <g>
      <g class="st30">
        <polygon points="827.7 1352.7 827.7 1417.7 762.7 1417.7 739.7 1394.7 739.7 1329.7 804.7 1329.7 827.7 1352.7"/>
      </g>
      <g>
        <polygon class="st18" points="758.8 1415.2 735.2 1391.6 735.2 1325.2 801.6 1325.2 825.2 1348.8 825.2 1415.2 758.8 1415.2"/>
        <path class="st29" d="M801.1,1326.2l23,23v65h-65l-23-23v-65h65M802,1324.2h-67.8v67.8l.6.6,23,23,.6.6h67.8v-67.8l-.6-.6-23-23-.6-.6h0Z"/>
      </g>
    </g>
  </g>
  <g class="st25">
    <g>
      <g class="st30">
        <polygon points="1027.7 1498.3 989.6 1536.4 823.1 1536.4 822.7 1536 822.7 1498.3 1027.7 1498.3"/>
        <path d="M821.2,1508.4"/>
      </g>
      <polygon class="st9" points="1023.7 1496.6 986.9 1533.3 821 1533.3 821 1496.6 1023.7 1496.6"/>
    </g>
    <g>
      <g class="st30">
        <polygon points="824.2 1471.5 824.2 1536.4 759.2 1536.4 736.2 1513.4 736.2 1448.4 801.1 1448.4 824.2 1471.5"/>
      </g>
      <g>
        <polygon class="st18" points="755.3 1533.9 731.6 1510.3 731.6 1443.9 798 1443.9 821.6 1467.5 821.6 1533.9 755.3 1533.9"/>
        <path class="st29" d="M797.6,1444.9l23,23v65h-65l-23-23v-65h65M798.4,1442.9h-67.8v67.8l.6.6,23,23,.6.6h67.8v-67.8l-.6-.6-23-23-.6-.6h0Z"/>
      </g>
    </g>
  </g>
  <g class="st25">
    <g class="st30">
      <polygon points="958.4 1808.6 924.9 1808.6 958.4 1775.1 958.4 1808.6"/>
      <polygon points="755.4 1645.4 769 1631.8 769 1659.2 755.4 1645.7 755.4 1645.4"/>
      <polygon points="755.4 1652 769 1665.5 769 1679 755.4 1665.4 755.4 1652"/>
      <polygon points="755.4 1671.8 769 1685.3 769 1698.8 755.4 1685.2 755.4 1671.8"/>
      <polygon points="755.4 1691.5 769 1705.1 769 1718.5 755.4 1705 755.4 1691.5"/>
      <polygon points="755.4 1711.3 769 1724.9 755.4 1738.5 755.4 1711.3"/>
      <path d="M773.5,1728.4v-116.1h106.8v-7.7h-36.8v-7h130.6v129.2h-7v-40.4h-7.7v77.3l-46,46h-166v-55.1l26.1-26.1ZM967.1,1679.3v-74.8h-79.9v7.7h72.1v67h7.7Z"/>
    </g>
    <g>
      <polygon class="st29" points="921.1 1805.8 954.6 1805.8 954.6 1772.3 921.1 1805.8"/>
      <g>
        <polygon class="st29" points="751.6 1642.6 751.6 1642.9 765.2 1656.4 765.2 1629 751.6 1642.6"/>
        <polygon class="st29" points="765.2 1662.7 751.6 1649.2 751.6 1662.7 765.2 1676.2 765.2 1662.7"/>
        <polygon class="st29" points="765.2 1682.5 751.6 1669 751.6 1682.4 765.2 1696 765.2 1682.5"/>
        <polygon class="st29" points="765.2 1702.3 751.6 1688.7 751.6 1702.2 765.2 1715.8 765.2 1702.3"/>
        <polygon class="st29" points="765.2 1722.1 751.6 1708.5 751.6 1735.7 765.2 1722.1"/>
      </g>
      <polygon class="st12" points="744.6 1752.1 744.6 1805.8 909.2 1805.8 954.6 1760.4 954.6 1610.5 770.7 1610.5 770.7 1726 744.6 1752.1"/>
      <polygon class="st29" points="963.3 1724 970.3 1724 970.3 1594.8 839.7 1594.8 839.7 1601.8 963.3 1601.8 963.3 1724"/>
      <rect class="st29" x="876.5" y="1601.3" width="7" height="9.2"/>
      <rect class="st29" x="954.6" y="1676.5" width="9.2" height="7"/>
    </g>
  </g>
  <g>
    <g class="st30">
      <polygon points="1916.8 1262.4 1820.5 1262.4 1916.8 1166.1 1916.8 1262.4"/>
      <polygon points="1334 793.9 1372.9 754.8 1372.9 833.5 1334 794.6 1334 793.9"/>
      <polygon points="1334 812.7 1372.9 851.6 1372.9 890.3 1334 851.4 1334 812.7"/>
      <polygon points="1334 869.5 1372.9 908.4 1372.9 947.1 1334 908.1 1334 869.5"/>
      <polygon points="1334 926.2 1372.9 965.1 1372.9 1003.8 1334 964.9 1334 926.2"/>
      <polygon points="1334 983 1372.9 1021.9 1334 1061 1334 983"/>
      <path d="M1385.9,1032.2v-333.4h306.6v-22.2h-105.5v-20.1h375.1v371h-20.1v-116.1h-22.2v221.8l-132.2,132.2h-476.6v-158.2l75-74.9ZM1941.9,891.2v-214.7h-229.3v22.2h207.1v192.5h22.2Z"/>
    </g>
    <g>
      <polygon class="st22" points="1809.6 1254.4 1905.9 1254.4 1905.9 1158.1 1809.6 1254.4"/>
      <g>
        <polygon class="st22" points="1323.2 785.9 1323.2 786.5 1362.1 825.4 1362.1 746.7 1323.2 785.9"/>
        <polygon class="st22" points="1362.1 843.6 1323.2 804.7 1323.2 843.3 1362.1 882.2 1362.1 843.6"/>
        <polygon class="st22" points="1362.1 900.4 1323.2 861.5 1323.2 900.1 1362.1 939 1362.1 900.4"/>
        <polygon class="st22" points="1362.1 957.1 1323.2 918.2 1323.2 956.9 1362.1 995.8 1362.1 957.1"/>
        <polygon class="st22" points="1362.1 1013.9 1323.2 975 1323.2 1053 1362.1 1013.9"/>
      </g>
      <polygon class="st14" points="1302.9 1100.2 1302.9 1254.4 1775.4 1254.4 1905.9 1123.9 1905.9 693.6 1377.9 693.6 1377.9 1025.3 1302.9 1100.2"/>
      <polygon class="st22" points="1931 1019.4 1951.1 1019.4 1951.1 648.4 1576 648.4 1576 668.5 1931 668.5 1931 1019.4"/>
      <rect class="st22" x="1681.6" y="667.1" width="20.1" height="26.5"/>
      <rect class="st22" x="1905.9" y="883.2" width="26.5" height="20.1"/>
    </g>
  </g>
  <g class="st25">
    <polygon class="st27" points="1910.6 1530.6 1436.8 1530.6 1436.8 1484.6 1372.3 1420.1 1242.6 1420.1 1242.6 1549.8 1307.1 1614.3 1436.8 1614.3 1436.8 1614.3 1569.3 1614 1619.1 1581.4 1853.5 1581.4 1910.6 1530.6"/>
    <g>
      <polygon class="st18" points="1420.7 1604.8 1420.7 1565.6 1619.3 1565.6 1559.5 1604.8 1420.7 1604.8"/>
      <path class="st29" d="M1608.3,1568.9l-49.8,32.6h-134.5v-32.6h184.3M1630.2,1562.3h-212.8v45.7h143l1.6-1.1,49.8-32.6,18.3-12h0ZM1608.3,1575.4h0,0Z"/>
    </g>
    <g>
      <polygon class="st18" points="1420.7 1572.1 1420.7 1521.4 1900.8 1521.4 1843.7 1572.1 1420.7 1572.1"/>
      <path class="st29" d="M1892.2,1524.7l-49.8,44.2h-418.4v-44.2h468.2M1909.5,1518.1h-492v57.3h427.4l1.9-1.6,49.8-44.2,12.9-11.4h0ZM1892.2,1531.2h0,0Z"/>
    </g>
    <g>
      <polygon class="st18" points="1297.1 1604.8 1232.5 1540.1 1232.5 1410 1362.6 1410 1427.3 1474.6 1427.3 1604.8 1297.1 1604.8"/>
      <path class="st29" d="M1361.2,1413.2l62.8,62.8v125.5h-125.5l-62.8-62.8v-125.5h125.5M1364,1406.7h-134.8v134.8l1.9,1.9,62.8,62.8,1.9,1.9h134.8v-134.8l-1.9-1.9-62.8-62.8-1.9-1.9h0Z"/>
    </g>
    <polyline class="st10" points="1253.5 1532 1253.5 1431 1347.6 1431"/>
    <polyline class="st10" points="1406.2 1482.8 1406.2 1583.8 1312.1 1583.8"/>
    <line class="st10" x1="1253.5" y1="1502.2" x2="1235.7" y2="1502.2"/>
    <line class="st10" x1="1336.1" y1="1583.8" x2="1336.1" y2="1601.5"/>
    <line class="st10" x1="1406.2" y1="1513.6" x2="1424" y2="1513.6"/>
    <line class="st10" x1="1312.1" y1="1431" x2="1312.1" y2="1413.2"/>
    <rect class="st29" x="1437.2" y="1530.6" width="19.6" height="32.3"/>
    <polygon class="st29" points="1557.3 1596.3 1436.3 1596.3 1436.3 1580.7 1581.4 1580.7 1557.3 1596.3"/>
    <rect class="st29" x="1464" y="1530.6" width="19.6" height="32.3"/>
    <rect class="st29" x="1490.9" y="1530.6" width="19.6" height="32.3"/>
    <rect class="st29" x="1517.8" y="1530.6" width="19.6" height="32.3"/>
    <rect class="st29" x="1544.7" y="1530.6" width="19.6" height="32.3"/>
    <rect class="st29" x="1571.6" y="1530.6" width="19.6" height="32.3"/>
    <rect class="st29" x="1598.5" y="1530.6" width="19.6" height="32.3"/>
    <rect class="st29" x="1625.4" y="1530.6" width="19.6" height="32.3"/>
    <rect class="st29" x="1652.3" y="1530.6" width="19.6" height="32.3"/>
    <rect class="st29" x="1679.2" y="1530.6" width="19.6" height="32.3"/>
    <rect class="st29" x="1706.1" y="1530.6" width="19.6" height="32.3"/>
    <rect class="st29" x="1733" y="1530.6" width="19.6" height="32.3"/>
    <rect class="st29" x="1759.9" y="1530.6" width="19.6" height="32.3"/>
    <rect class="st29" x="1786.8" y="1530.6" width="19.6" height="32.3"/>
    <rect class="st29" x="1813.7" y="1530.6" width="19.6" height="32.3"/>
    <polygon class="st29" points="1840.6 1562.9 1840.6 1562.9 1840.6 1530.6 1876.3 1530.6 1840.6 1562.9"/>
    <rect class="st29" x="1679.2" y="1530.6" width="19.6" height="32.3"/>
  </g>
  <g class="st25">
    <polygon class="st27" points="1277.1 1667.4 1276.4 1721.4 1719 1721.4 1719.7 1667.4 1277.1 1667.4"/>
    <g>
      <polygon class="st7" points="1273.3 1713.6 1711.2 1713.6 1711.9 1664.2 1273.9 1664.2 1273.3 1713.6"/>
      <g>
        <rect class="st29" x="1281.2" y="1670.2" width="11.5" height="37.4"/>
        <rect class="st29" x="1297" y="1670.2" width="11.5" height="37.4"/>
        <rect class="st29" x="1312.8" y="1670.2" width="11.5" height="37.4"/>
        <rect class="st29" x="1328.6" y="1670.2" width="11.5" height="37.4"/>
        <rect class="st29" x="1344.5" y="1670.2" width="11.5" height="37.4"/>
        <rect class="st29" x="1360.3" y="1670.2" width="11.5" height="37.4"/>
        <rect class="st29" x="1376.1" y="1670.2" width="11.5" height="37.4"/>
        <rect class="st29" x="1391.9" y="1670.2" width="11.5" height="37.4"/>
        <rect class="st29" x="1407.7" y="1670.2" width="11.5" height="37.4"/>
        <rect class="st29" x="1423.6" y="1670.2" width="11.5" height="37.4"/>
        <rect class="st29" x="1439.4" y="1670.2" width="11.5" height="37.4"/>
        <rect class="st29" x="1455.2" y="1670.2" width="11.5" height="37.4"/>
        <rect class="st29" x="1471" y="1670.2" width="11.5" height="37.4"/>
        <rect class="st29" x="1486.8" y="1670.2" width="11.5" height="37.4"/>
        <rect class="st29" x="1502.7" y="1670.2" width="11.5" height="37.4"/>
        <rect class="st29" x="1518.5" y="1670.2" width="11.5" height="37.4"/>
        <rect class="st29" x="1534.3" y="1670.2" width="11.5" height="37.4"/>
        <rect class="st29" x="1550.1" y="1670.2" width="11.5" height="37.4"/>
        <rect class="st29" x="1565.9" y="1670.2" width="11.5" height="37.4"/>
        <rect class="st29" x="1581.8" y="1670.2" width="11.5" height="37.4"/>
        <rect class="st29" x="1597.6" y="1670.2" width="11.5" height="37.4"/>
        <rect class="st29" x="1613.4" y="1670.2" width="11.5" height="37.4"/>
        <rect class="st29" x="1629.2" y="1670.2" width="11.5" height="37.4"/>
        <rect class="st29" x="1645.1" y="1670.2" width="11.5" height="37.4"/>
        <rect class="st29" x="1660.9" y="1670.2" width="11.5" height="37.4"/>
        <rect class="st29" x="1676.7" y="1670.2" width="11.5" height="37.4"/>
        <rect class="st29" x="1692.5" y="1670.2" width="11.5" height="37.4"/>
      </g>
    </g>
  </g>
  <g class="st25">
    <polygon class="st27" points="1941 1106.7 1467.2 1106.7 1467.2 1060.7 1402.6 996.2 1272.9 996.2 1272.9 1125.9 1337.4 1190.4 1467.2 1190.4 1467.2 1190.4 1599.6 1190.1 1649.4 1157.5 1883.8 1157.5 1941 1106.7"/>
    <g>
      <polygon class="st18" points="1451.1 1180.9 1451.1 1141.7 1649.6 1141.7 1589.8 1180.9 1451.1 1180.9"/>
      <path class="st22" d="M1638.7,1145l-49.8,32.6h-134.5v-32.6h184.3M1660.6,1138.4h-212.8v45.7h143l1.6-1.1,49.8-32.6,18.3-12h0ZM1638.7,1151.5h0,0Z"/>
    </g>
    <g>
      <polygon class="st18" points="1451.1 1148.2 1451.1 1097.5 1931.2 1097.5 1874 1148.2 1451.1 1148.2"/>
      <path class="st22" d="M1922.6,1100.8l-49.8,44.2h-418.4v-44.2h468.2M1939.8,1094.2h-492v57.3h427.4l1.9-1.6,49.8-44.2,12.9-11.4h0ZM1922.6,1107.3h0,0Z"/>
    </g>
    <g>
      <polygon class="st18" points="1327.5 1180.9 1262.8 1116.2 1262.8 986.1 1393 986.1 1457.6 1050.8 1457.6 1180.9 1327.5 1180.9"/>
      <path class="st22" d="M1391.6,989.3l62.8,62.8v125.5h-125.5l-62.8-62.8v-125.5h125.5M1394.3,982.8h-134.8v134.8l1.9,1.9,62.8,62.8,1.9,1.9h134.8v-134.8l-1.9-1.9-62.8-62.8-1.9-1.9h0Z"/>
    </g>
    <polyline class="st2" points="1283.8 1108.1 1283.8 1007.1 1378 1007.1"/>
    <polyline class="st2" points="1436.6 1058.9 1436.6 1159.9 1342.5 1159.9"/>
    <line class="st2" x1="1283.8" y1="1078.3" x2="1266.1" y2="1078.3"/>
    <line class="st2" x1="1366.4" y1="1159.9" x2="1366.4" y2="1177.6"/>
    <line class="st2" x1="1436.6" y1="1089.7" x2="1454.4" y2="1089.7"/>
    <line class="st2" x1="1342.5" y1="1007.1" x2="1342.5" y2="989.3"/>
    <rect class="st22" x="1467.5" y="1106.7" width="19.6" height="32.3"/>
    <polygon class="st22" points="1587.6 1172.4 1466.7 1172.4 1466.7 1156.8 1611.8 1156.8 1587.6 1172.4"/>
    <rect class="st22" x="1494.4" y="1106.7" width="19.6" height="32.3"/>
    <rect class="st22" x="1521.3" y="1106.7" width="19.6" height="32.3"/>
    <rect class="st22" x="1548.2" y="1106.7" width="19.6" height="32.3"/>
    <rect class="st22" x="1575.1" y="1106.7" width="19.6" height="32.3"/>
    <rect class="st22" x="1602" y="1106.7" width="19.6" height="32.3"/>
    <rect class="st22" x="1628.9" y="1106.7" width="19.6" height="32.3"/>
    <rect class="st22" x="1655.8" y="1106.7" width="19.6" height="32.3"/>
    <rect class="st22" x="1682.7" y="1106.7" width="19.6" height="32.3"/>
    <rect class="st22" x="1709.6" y="1106.7" width="19.6" height="32.3"/>
    <rect class="st22" x="1736.5" y="1106.7" width="19.6" height="32.3"/>
    <rect class="st22" x="1763.4" y="1106.7" width="19.6" height="32.3"/>
    <rect class="st22" x="1790.3" y="1106.7" width="19.6" height="32.3"/>
    <rect class="st22" x="1817.2" y="1106.7" width="19.6" height="32.3"/>
    <rect class="st22" x="1844.1" y="1106.7" width="19.6" height="32.3"/>
    <polygon class="st22" points="1871 1139 1871 1139 1871 1106.7 1906.6 1106.7 1871 1139"/>
    <rect class="st22" x="1709.6" y="1106.7" width="19.6" height="32.3"/>
  </g>
  <g>
    <polygon class="st26" points="49 1117.1 47 1272.3 1317.8 1272.3 1319.8 1117.1 49 1117.1"/>
    <g>
      <polygon class="st3" points="38 1249.9 1295.5 1249.9 1297.3 1108 39.8 1108 38 1249.9"/>
      <g class="st25">
        <rect class="st22" x="60.6" y="1125.3" width="33" height="107.4"/>
        <rect class="st22" x="106" y="1125.3" width="33" height="107.4"/>
        <rect class="st22" x="151.5" y="1125.3" width="33" height="107.4"/>
        <rect class="st22" x="196.9" y="1125.3" width="33" height="107.4"/>
        <rect class="st22" x="242.3" y="1125.3" width="33" height="107.4"/>
        <rect class="st22" x="287.8" y="1125.3" width="33" height="107.4"/>
        <rect class="st22" x="333.2" y="1125.3" width="33" height="107.4"/>
        <rect class="st22" x="378.6" y="1125.3" width="33" height="107.4"/>
        <rect class="st22" x="424" y="1125.3" width="33" height="107.4"/>
        <rect class="st22" x="469.5" y="1125.3" width="33" height="107.4"/>
        <rect class="st22" x="514.9" y="1125.3" width="33" height="107.4"/>
        <rect class="st22" x="560.3" y="1125.3" width="33" height="107.4"/>
        <rect class="st22" x="605.7" y="1125.3" width="33" height="107.4"/>
        <rect class="st22" x="651.2" y="1125.3" width="33" height="107.4"/>
        <rect class="st22" x="696.6" y="1125.3" width="33" height="107.4"/>
        <rect class="st22" x="742" y="1125.3" width="33" height="107.4"/>
        <rect class="st22" x="787.5" y="1125.3" width="33" height="107.4"/>
        <rect class="st22" x="832.9" y="1125.3" width="33" height="107.4"/>
        <rect class="st22" x="878.3" y="1125.3" width="33" height="107.4"/>
        <rect class="st22" x="923.7" y="1125.3" width="33" height="107.4"/>
        <rect class="st22" x="969.2" y="1125.3" width="33" height="107.4"/>
        <rect class="st22" x="1014.6" y="1125.3" width="33" height="107.4"/>
        <rect class="st22" x="1060" y="1125.3" width="33" height="107.4"/>
        <rect class="st22" x="1105.5" y="1125.3" width="33" height="107.4"/>
        <rect class="st22" x="1150.9" y="1125.3" width="33" height="107.4"/>
        <rect class="st22" x="1196.3" y="1125.3" width="33" height="107.4"/>
        <rect class="st22" x="1241.7" y="1125.3" width="33" height="107.4"/>
      </g>
    </g>
  </g>
</svg>